<svg version="1.1" viewBox="0.0 0.0 224.8451443569554 100.0" fill="none" stroke="none" stroke-linecap="square" stroke-miterlimit="10" xmlns:xlink="http://www.w3.org/1999/xlink" xmlns="http://www.w3.org/2000/svg"><clipPath id="p.0"><path d="m0 0l224.84514 0l0 100.0l-224.84514 0l0 -100.0z" clip-rule="nonzero"/></clipPath><g clip-path="url(#p.0)"><path fill="#000000" fill-opacity="0.0" d="m0 0l224.84514 0l0 100.0l-224.84514 0z" fill-rule="evenodd"/><path fill="#000000" fill-opacity="0.0" d="m0.87926507 0l223.08661 0l0 100.0l-223.08661 0z" fill-rule="evenodd"/><path fill="#ffffff" d="m56.92054 10.557499l-6.5 30.5625l-7.953125 0l2.734375 -12.828125l-2.375 0l-2.734375 12.828125l-7.953125 0l6.5 -30.5625l7.953125 0l-2.328125 10.9375l2.375 0l2.328125 -10.9375l7.953125 0zm16.289139 18.484375l-9.859375 0l-1.140625 5.421875q-0.359375 1.6875 -0.234375 2.1875q0.140625 0.484375 0.84375 0.484375q0.859375 0 1.296875 -0.640625q0.4375 -0.65625 0.828125 -2.53125l0.703125 -3.296875l7.21875 0l-0.390625 1.84375q-0.5 2.328125 -1.046875 3.578125q-0.546875 1.234375 -1.9375 2.65625q-1.375 1.40625 -3.171875 2.125q-1.796875 0.703125 -4.296875 0.703125q-2.40625 0 -4.109375 -0.6875q-1.703125 -0.703125 -2.484375 -1.921875q-0.765625 -1.21875 -0.859375 -2.671875q-0.078125 -1.46875 0.515625 -4.265625l1.546875 -7.3125q0.703125 -3.28125 1.984375 -5.171875q1.296875 -1.90625 3.53125 -2.90625q2.25 -1.015625 4.859375 -1.015625q3.21875 0 5.046875 1.21875q1.828125 1.21875 2.234375 3.234375q0.40625 2.0 -0.359375 5.640625l-0.71875 3.328125zm-6.765625 -4.078125l0.390625 -1.828125q0.40625 -1.953125 0.3125 -2.515625q-0.078125 -0.5625 -0.71875 -0.5625q-0.78125 0 -1.078125 0.484375q-0.28125 0.46875 -0.734375 2.59375l-0.390625 1.828125l2.21875 0zm29.481003 -8.890625l-5.328125 25.046875l-7.75 0l0.5625 -2.078125q-1.046875 1.265625 -2.34375 1.90625q-1.296875 0.625 -2.8125 0.625q-1.71875 0 -2.734375 -0.59375q-1.0 -0.609375 -1.328125 -1.609375q-0.3125 -1.0 -0.21875 -2.078125q0.109375 -1.09375 0.796875 -4.328125l3.59375 -16.890625l7.625 0l-3.625 17.046875q-0.625 2.921875 -0.5625 3.46875q0.0625 0.546875 0.84375 0.546875q0.859375 0 1.140625 -0.5625q0.28125 -0.5625 0.921875 -3.640625l3.59375 -16.859375l7.625 0zm10.368256 0l-1.0 3.28125q2.40625 -3.53125 5.609375 -3.734375l-1.875 8.8125q-2.09375 0 -3.203125 0.578125q-1.109375 0.5625 -1.546875 1.578125q-0.4375 1.0 -1.203125 4.640625l-2.109375 9.890625l-7.625 0l5.328125 -25.046875l7.625 0zm15.2417145 -5.515625l-0.84375 3.984375l-7.859375 0l0.84375 -3.984375l7.859375 0zm-1.171875 5.515625l-5.328125 25.046875l-7.859375 0l5.328125 -25.046875l7.859375 0zm16.604576 8.0l-6.765625 0l0.28125 -1.359375q0.375 -1.734375 0.28125 -2.1875q-0.09375 -0.46875 -0.890625 -0.46875q-0.640625 0 -1.0625 0.421875q-0.40625 0.421875 -0.59375 1.28125q-0.23438263 1.140625 -0.203125 1.6875q0.046875 0.53125 0.71875 1.171875q0.671875 0.640625 2.90625 1.875q2.96875 1.625 3.71875 3.046875q0.71875 1.4375 0.140625 4.171875q-0.65625 3.0625 -1.78125 4.625q-1.109375 1.546875 -3.15625 2.390625q-2.03125 0.84375 -4.6562576 0.84375q-2.90625 0 -4.796875 -0.90625q-1.875 -0.90625 -2.3125 -2.453125q-0.4375 -1.546875 0.21875 -4.6875l0.265625 -1.203125l6.75 0l-0.34375 1.59375q-0.421875 2.015625 -0.296875 2.625q0.125 0.59375 0.875 0.59375q0.8125 0 1.21875 -0.40625q0.40625 -0.40625 0.6875076 -1.703125q0.375 -1.796875 0.078125 -2.25q-0.34375763 -0.453125 -3.8750076 -2.671875q-2.953125 -1.890625 -3.375 -3.421875q-0.40625 -1.546875 0.046875 -3.65625q0.640625 -3.015625 1.734375 -4.4375q1.09375 -1.421875 3.15625 -2.1875q2.0625 -0.78125 4.5781326 -0.78125q2.484375 0 4.09375 0.640625q1.625 0.625 2.328125 1.671875q0.703125 1.03125 0.71875 1.921875q0.015625 0.875 -0.375 2.765625l-0.3125 1.453125zm13.070618 -11.34375l-0.84375 3.953125l2.046875 0l-0.828125 3.953125l-2.046875 0l-2.859375 13.40625q-0.515625 2.46875 -0.328125 2.75q0.1875 0.28125 2.0625 0.28125l-0.859375 4.046875l-3.078125 0q-2.609375 0 -3.671875 -0.21875q-1.0625 -0.21875 -1.75 -1.0q-0.6875 -0.78125 -0.6875 -1.78125q0.015625 -1.015625 0.796875 -4.75l2.71875 -12.734375l-1.640625 0l0.828125 -3.953125l1.640625 0l0.84375 -3.953125l7.65625 0zm12.059326 -2.171875l-0.84375 3.984375l-7.859375 0l0.84375 -3.984375l7.859375 0zm-1.171875 5.515625l-5.328125 25.046875l-7.859375 0l5.328125 -25.046875l7.859375 0zm17.573318 9.453125l-7.203125 0l0.609375 -2.890625q0.328125 -1.5 0.203125 -2.03125q-0.125 -0.546875 -0.78125 -0.546875q-0.65625 0 -0.984375 0.46875q-0.328125 0.46875 -0.6875 2.109375l-2.5 11.828125q-0.296875 1.328125 -0.109375 2.0q0.203125 0.671875 0.859375 0.671875q0.78125 0 1.203125 -0.6875q0.421875 -0.703125 0.84375 -2.65625l0.625 -2.984375l6.796875 0q-0.65625 3.015625 -1.1875 4.515625q-0.515625 1.5 -1.90625 3.078125q-1.390625 1.5625 -3.28125 2.375q-1.890625 0.796875 -4.421875 0.796875q-3.234375 0 -4.890625 -1.09375q-1.640625 -1.109375 -2.015625 -3.09375q-0.359375 -2.0 0.421875 -5.671875l1.515625 -7.109375q0.671875 -3.1875 1.65625 -4.8125q1.0 -1.625 3.359375 -2.890625q2.375 -1.28125 5.375 -1.28125q2.984375 0 4.8125 1.265625q1.84375 1.265625 2.140625 3.1875q0.296875 1.921875 -0.453125 5.453125zm18.151749 -1.453125l-6.765625 0l0.28125 -1.359375q0.375 -1.734375 0.28125 -2.1875q-0.09375 -0.46875 -0.890625 -0.46875q-0.640625 0 -1.0625 0.421875q-0.40625 0.421875 -0.59375 1.28125q-0.234375 1.140625 -0.203125 1.6875q0.046875 0.53125 0.71875 1.171875q0.671875 0.640625 2.90625 1.875q2.96875 1.625 3.71875 3.046875q0.71875 1.4375 0.140625 4.171875q-0.65625 3.0625 -1.78125 4.625q-1.109375 1.546875 -3.15625 2.390625q-2.03125 0.84375 -4.65625 0.84375q-2.90625 0 -4.796875 -0.90625q-1.875 -0.90625 -2.3125 -2.453125q-0.4375 -1.546875 0.21875 -4.6875l0.265625 -1.203125l6.75 0l-0.34375 1.59375q-0.421875 2.015625 -0.296875 2.625q0.125 0.59375 0.875 0.59375q0.8125 0 1.21875 -0.40625q0.40625 -0.40625 0.6875 -1.703125q0.375 -1.796875 0.078125 -2.25q-0.34375 -0.453125 -3.875 -2.671875q-2.953125 -1.890625 -3.375 -3.421875q-0.40625 -1.546875 0.046875 -3.65625q0.640625 -3.015625 1.734375 -4.4375q1.09375 -1.421875 3.15625 -2.1875q2.0625 -0.78125 4.578125 -0.78125q2.484375 0 4.09375 0.640625q1.625 0.625 2.328125 1.671875q0.703125 1.03125 0.71875 1.921875q0.015625 0.875 -0.375 2.765625l-0.3125 1.453125z" fill-rule="nonzero"/><path fill="#ffffff" d="m58.00154 56.557495l-0.828125 3.875q-2.359375 0 -2.828125 0.21875q-0.46875 0.21875 -0.6875 1.234375l-0.171875 0.796875l3.203125 0l-0.828125 3.953125l-1.8125 0l-4.359375 20.484375l-7.625 0l4.359375 -20.484375l-1.5625 0l0.828125 -3.953125l1.5625 0q0.53125 -2.484375 0.875 -3.3125q0.359375 -0.828125 1.15625 -1.46875q0.8125 -0.65625 2.09375 -1.0q1.28125 -0.34375 3.828125 -0.34375l2.796875 0zm15.658447 14.3125l-1.296875 6.140625q-0.71875 3.375 -1.390625 4.953125q-0.671875 1.5625 -2.09375 2.9375q-1.40625 1.375 -3.28125 2.03125q-1.875 0.640625 -4.140625 0.640625q-2.53125 0 -4.171875 -0.546875q-1.640625 -0.5625 -2.375 -1.6875q-0.71875 -1.125 -0.8125 -2.71875q-0.078125 -1.59375 0.59375 -4.78125l1.375 -6.421875q0.734375 -3.5 1.90625 -5.453125q1.1875 -1.96875 3.390625 -3.15625q2.21875 -1.1875 5.28125 -1.1875q2.5625 0 4.234375 0.765625q1.6875 0.765625 2.421875 2.0q0.75 1.21875 0.828125 2.53125q0.09375 1.296875 -0.46875 3.953125zm-7.21875 -1.890625q0.40625 -1.921875 0.296875 -2.421875q-0.09375 -0.5 -0.765625 -0.5q-0.671875 0 -1.015625 0.5q-0.328125 0.5 -0.734375 2.421875l-2.40625 11.3125q-0.375 1.765625 -0.265625 2.3125q0.109375 0.53125 0.765625 0.53125q0.671875 0 1.0 -0.484375q0.328125 -0.5 0.671875 -2.125l2.453125 -11.546875zm19.231003 -6.90625l-1.0 3.28125q2.40625 -3.53125 5.609375 -3.734375l-1.875 8.8125q-2.09375 0 -3.203125 0.578125q-1.109375 0.5625 -1.546875 1.578125q-0.4375 1.0 -1.203125 4.640625l-2.109375 9.890625l-7.625 0l5.328125 -25.046875l7.625 0zm14.415009 -5.515625l8.015625 0q3.234375 0 4.875 0.515625q1.640625 0.5 2.3125 1.46875q0.671875 0.96875 0.6875 2.34375q0.015625 1.359375 -0.59375 4.21875l-0.5625 2.671875q-0.625 2.921875 -1.515625 4.265625q-0.875 1.34375 -2.65625 2.0625q-1.765625 0.703125 -4.359375 0.703125l-2.140625 0l-2.609375 12.3125l-7.953125 0l6.5 -30.5625zm6.84375 5.234375l-1.65625 7.78125q0.328125 0.015625 0.5625 0.015625q1.109375 0 1.640625 -0.53125q0.546875 -0.546875 0.90625 -2.25l0.53125 -2.5q0.34375 -1.578125 -0.046875 -2.046875q-0.390625 -0.46875 -1.9375 -0.46875zm15.9192505 9.984375l-7.15625 0l0.359375 -1.6875q0.609375 -2.90625 1.609375 -4.46875q1.015625 -1.578125 3.296875 -2.78125q2.28125 -1.21875 5.5 -1.21875q3.875 0 5.546875 1.375q1.671875 1.359375 1.640625 3.359375q-0.03125 1.984375 -1.34375 8.1875l-2.671875 12.578125l-7.421875 0l0.46875 -2.234375q-0.984375 1.34375 -2.234375 2.015625q-1.234375 0.671875 -2.765625 0.671875q-2.0 0 -3.4375 -1.125q-1.4375 -1.125 -0.625 -4.921875l0.4375 -2.046875q0.59375 -2.8125 1.703125 -3.828125q1.109375 -1.03125 4.90625 -2.390625q4.078125 -1.46875 4.4375 -1.96875q0.375 -0.515625 0.71875 -2.078125q0.40625 -1.96875 0.234375 -2.5625q-0.15625 -0.59375 -0.828125 -0.59375q-0.78125 0 -1.078125 0.5q-0.296875 0.5 -0.75 2.59375l-0.546875 2.625zm1.6875 3.4375q-2.109375 1.34375 -2.609375 2.25q-0.484375 0.890625 -0.84375 2.59375q-0.40625 1.953125 -0.28125 2.515625q0.140625 0.5625 0.890625 0.5625q0.71875 0 1.03125 -0.4375q0.3125 -0.453125 0.71875 -2.328125l1.09375 -5.15625zm20.666626 -13.140625l-1.0 3.28125q2.40625 -3.53125 5.609375 -3.734375l-1.875 8.8125q-2.09375 0 -3.203125 0.578125q-1.109375 0.5625 -1.546875 1.578125q-0.4375 1.0 -1.203125 4.640625l-2.109375 9.890625l-7.625 0l5.328125 -25.046875l7.625 0zm15.24173 -5.515625l-0.84375 3.984375l-7.859375 0l0.84375 -3.984375l7.859375 0zm-1.171875 5.515625l-5.328125 25.046875l-7.859375 0l5.328125 -25.046875l7.859375 0zm11.479553 -3.34375l-0.84375 3.953125l2.046875 0l-0.828125 3.953125l-2.046875 0l-2.859375 13.40625q-0.515625 2.46875 -0.328125 2.75q0.1875 0.28125 2.0625 0.28125l-0.859375 4.046875l-3.078125 0q-2.609375 0 -3.671875 -0.21875q-1.0625 -0.21875 -1.75 -1.0q-0.6875 -0.78125 -0.6875 -1.78125q0.015625 -1.015625 0.796875 -4.75l2.71875 -12.734375l-1.640625 0l0.828125 -3.953125l1.640625 0l0.84375 -3.953125l7.65625 0zm18.996826 3.34375l-6.046875 18.125q-1.421875 4.296875 -2.109375 5.875q-0.671875 1.5625 -1.703125 2.578125q-1.03125 1.015625 -2.578125 1.5q-1.546875 0.484375 -4.71875 0.484375l-4.625 0l0.859375 -4.0q1.765625 0 2.3125 -0.171875q0.546875 -0.1875 0.6875 -0.8125q0.0625 -0.3125 0.078125 -2.625l0.296875 -20.953125l6.921875 0l-1.109375 16.890625l4.8125 -16.890625l6.921875 0z" fill-rule="nonzero"/></g></svg>